<svg
  width="240"
  height="52"
  viewBox="0 0 240 52"
  fill="none"
  xmlns="http://www.w3.org/2000/svg"
>
  <g clip-path="url(#fh2cjz2hpa)">
    <path
      d="M59.076 20.878c.302-.306.66-.623 1.068-.945a8.63 8.63 0 0 1 1.43-.897 9.208 9.208 0 0 1 1.794-.67c.65-.171 1.37-.254 2.162-.254 1.333 0 2.57.254 3.704.763 1.134.508 2.13 1.333 2.979 2.47a10.31 10.31 0 0 1 3.23-2.356c1.24-.587 2.712-.877 4.409-.877 1.425 0 2.698.223 3.817.67a7.935 7.935 0 0 1 2.86 1.914c.788.83 1.386 1.822 1.794 2.98.41 1.156.614 2.438.614 3.855v14.681h-6.275V28.59c0-1.386-.342-2.491-1.022-3.327-.68-.83-1.645-1.245-2.887-1.245-1.425 0-2.57.456-3.433 1.36-.864.907-1.298 2.163-1.298 3.762v13.067h-6.229V28.584c0-1.385-.342-2.49-1.022-3.326-.68-.836-1.645-1.246-2.887-1.246-1.425 0-2.57.457-3.433 1.36-.864.908-1.298 2.164-1.298 3.763v13.067h-6.32v-23.68h6.228v2.356h.015zM109.671 40.458c-.818.649-1.824 1.152-3.025 1.526a12.833 12.833 0 0 1-3.796.555c-1.605 0-3.122-.306-4.548-.923a11.773 11.773 0 0 1-3.73-2.538 12.372 12.372 0 0 1-2.544-3.81c-.639-1.463-.956-3.056-.956-4.779 0-1.723.317-3.285.956-4.78.638-1.494 1.487-2.786 2.544-3.876a11.819 11.819 0 0 1 3.73-2.585 11.146 11.146 0 0 1 4.548-.944c1.333 0 2.6.192 3.796.576 1.196.384 2.202.898 3.025 1.546v-1.894h6.32v23.686h-6.32V40.458zm-6.275-16.347a5.81 5.81 0 0 0-2.432.509 6.282 6.282 0 0 0-1.931 1.36 6.382 6.382 0 0 0-1.298 2.034 6.535 6.535 0 0 0-.475 2.47c0 .861.158 1.723.475 2.49a6.624 6.624 0 0 0 1.298 2.03 5.724 5.724 0 0 0 1.931 1.36 6.048 6.048 0 0 0 2.432.482c.879 0 1.753-.16 2.525-.482a6.18 6.18 0 0 0 3.362-3.39 6.483 6.483 0 0 0 .475-2.49c0-.893-.169-1.687-.501-2.47a6.27 6.27 0 0 0-1.364-2.035 6.616 6.616 0 0 0-2.024-1.36 6.123 6.123 0 0 0-2.478-.508h.005zM118.536 42.212v-23.69h6.321v3.233a9.08 9.08 0 0 1 2.887-2.584c1.134-.65 2.432-.97 3.888-.97v6.465c-2.335 0-4.037.607-5.115 1.822-1.078 1.214-1.614 2.854-1.614 4.92v10.804h-6.367zM147.992 18.522h7.185l-8.958 11.775 9.32 11.91h-7.863l-7.409-9.74v9.74H133.9V10.582h6.367v18.563l7.725-10.618v-.005z"
      fill="#231F20"
    />
    <path
      d="M171.45 40.458c-.817.649-1.824 1.152-3.025 1.526a12.823 12.823 0 0 1-3.796.555c-1.604 0-3.122-.306-4.547-.923a11.76 11.76 0 0 1-3.73-2.538 12.377 12.377 0 0 1-2.545-3.81c-.639-1.463-.955-3.056-.955-4.779 0-1.723.316-3.285.955-4.78.639-1.494 1.487-2.786 2.545-3.876a11.805 11.805 0 0 1 3.73-2.585 11.144 11.144 0 0 1 4.547-.944c1.334 0 2.596.192 3.796.576 1.196.384 2.208.898 3.025 1.546v-1.894h6.321v23.686h-6.321V40.458zm-6.274-16.347c-.879 0-1.691.171-2.432.509a6.29 6.29 0 0 0-1.932 1.36 6.396 6.396 0 0 0-1.298 2.034 6.55 6.55 0 0 0-.475 2.47c0 .861.159 1.723.475 2.49a6.641 6.641 0 0 0 1.298 2.03 5.73 5.73 0 0 0 1.932 1.36 6.044 6.044 0 0 0 2.432.482 6.61 6.61 0 0 0 2.524-.482 6.18 6.18 0 0 0 3.362-3.39 6.465 6.465 0 0 0 .475-2.49 6.15 6.15 0 0 0-.501-2.47 6.254 6.254 0 0 0-1.364-2.035 6.612 6.612 0 0 0-2.023-1.36 6.126 6.126 0 0 0-2.478-.508h.005zM193.452 42.534c-1.333 0-2.6-.187-3.796-.555-1.196-.369-2.207-.877-3.025-1.526v1.754h-6.32V10.582h6.32v9.834c.818-.649 1.824-1.163 3.025-1.547a12.35 12.35 0 0 1 3.796-.576c1.574 0 3.086.317 4.522.945a11.822 11.822 0 0 1 3.751 2.584c1.062 1.095 1.911 2.388 2.544 3.877.639 1.495.956 3.088.956 4.78 0 1.691-.317 3.316-.956 4.78a12.571 12.571 0 0 1-2.544 3.809 11.532 11.532 0 0 1-3.751 2.537 11.359 11.359 0 0 1-4.522.924v.005zm-.546-5.677c.848 0 1.65-.161 2.406-.483a5.759 5.759 0 0 0 1.957-1.36 6.783 6.783 0 0 0 1.298-2.029 6.465 6.465 0 0 0 .475-2.49c0-.893-.158-1.687-.475-2.471a6.35 6.35 0 0 0-1.298-2.034 6.087 6.087 0 0 0-1.957-1.36 5.84 5.84 0 0 0-2.406-.509c-.849 0-1.707.172-2.479.509a6.706 6.706 0 0 0-2.023 1.36 6.214 6.214 0 0 0-1.364 2.034 6.277 6.277 0 0 0-.501 2.47c0 .862.158 1.723.475 2.491a6.299 6.299 0 0 0 1.339 2.03 6.103 6.103 0 0 0 2.023 1.36 6.503 6.503 0 0 0 2.524.482h.006zM207.36 42.212v-31.63h6.367v31.625h-6.367v.005zM239.182 37.132a12.448 12.448 0 0 1-4.43 4.13c-1.803 1.002-4.006 1.5-6.617 1.5-1.88 0-3.566-.316-5.068-.944-1.502-.628-2.79-1.495-3.863-2.584-1.078-1.09-1.901-2.393-2.478-3.903-.578-1.51-.864-3.14-.864-4.894s.297-3.295.889-4.8a11.774 11.774 0 0 1 2.524-3.95c1.089-1.12 2.392-2.008 3.909-2.657 1.513-.648 3.184-.97 5.003-.97 1.818 0 3.5.306 4.956.924 1.456.617 2.687 1.463 3.704 2.537 1.017 1.08 1.794 2.346 2.34 3.81.547 1.463.818 3.056.818 4.78 0 .461-.015.939-.046 1.432s-.046.768-.046.83h-17.822c.332 1.51 1.037 2.709 2.115 3.602 1.073.892 2.432 1.338 4.067 1.338 1.426 0 2.642-.285 3.659-.856a7.547 7.547 0 0 0 2.524-2.283l4.726 2.953v.005zm-11.047-13.805c-1.486 0-2.718.38-3.704 1.132-.986.752-1.691 1.81-2.115 3.16h11.317c-.332-1.448-1.017-2.522-2.044-3.233a5.98 5.98 0 0 0-3.454-1.064v.005z"
      fill="#231F20"
    />
    <path
      d="M26.314 24.386a5.983 5.983 0 0 0-3.454-1.064c-1.487 0-2.718.379-3.704 1.131-.986.753-1.692 1.812-2.116 3.161h11.318c-.332-1.448-1.017-2.522-2.044-3.233v.005zm19.473 20.442-3.618-31.112c-.378-3.233-3.07-5.667-6.274-5.667h-2.872C31.904 3.436 27.801 0 22.916 0c-4.884 0-8.982 3.436-10.106 8.054H9.938c-3.204 0-5.901 2.434-6.274 5.667L.046 44.828C-.399 48.648 2.539 52 6.321 52h33.191c3.786 0 6.72-3.352 6.275-7.172zM22.917 3.633c2.891 0 5.37 1.837 6.366 4.421H16.55c.996-2.584 3.474-4.421 6.366-4.421zm11.761 27.91c-.03.492-.045.768-.045.83H16.814c.333 1.51 1.038 2.709 2.116 3.602 1.073.892 2.432 1.338 4.067 1.338 1.426 0 2.642-.285 3.659-.856a7.555 7.555 0 0 0 2.524-2.283l4.726 2.953a12.457 12.457 0 0 1-4.43 4.13c-1.804 1.002-4.006 1.5-6.612 1.5-1.88 0-3.566-.316-5.068-.944-1.503-.628-2.79-1.495-3.863-2.585-1.078-1.09-1.901-2.392-2.478-3.902-.578-1.51-.864-3.14-.864-4.894s.296-3.295.884-4.8A11.764 11.764 0 0 1 14 21.681a11.956 11.956 0 0 1 3.909-2.657c1.512-.649 3.183-.97 5.002-.97 1.82 0 3.5.306 4.956.923 1.457.618 2.688 1.464 3.705 2.538 1.017 1.08 1.793 2.346 2.34 3.81.547 1.463.818 3.056.818 4.779 0 .462-.016.94-.046 1.432l-.005.006z"
      fill="url(#2wl4huv2eb)"
    />
  </g>
  <defs>
    <linearGradient
      id="2wl4huv2eb"
      x1="3.398"
      y1="12.04"
      x2="43.047"
      y2="51.072"
      gradientUnits="userSpaceOnUse"
    >
      <stop stop-color="#EF528E" />
      <stop offset="1" stop-color="#F26C60" />
    </linearGradient>
    <clipPath id="fh2cjz2hpa">
      <path fill="#fff" d="M0 0h240v52H0z" />
    </clipPath>
  </defs>
</svg>
